<svg id="Layer_1" data-name="Layer 1" xmlns="http://www.w3.org/2000/svg" viewBox="0 0 45.91 42.49"><defs><style>.cls-1{fill:#fff;}</style></defs><title>Login Icon better</title><path class="cls-1" d="M11497.41,40.63a22.95,22.95,0,0,0-15.21,40.14h0a22.67,22.67,0,0,0,3.16,2.34c0-.13,1.21-18.29,12.05-18.64,10.84,0.35,12,18.51,12,18.64a22.67,22.67,0,0,0,3.16-2.34h0A23,23,0,0,0,11497.41,40.63Zm0,21.9a8.74,8.74,0,1,1,8.74-8.74A8.74,8.74,0,0,1,11497.38,62.53Z" transform="translate(-11474.45 -40.63)"/></svg>