<svg id="Layer_1" data-name="Layer 1" xmlns="http://www.w3.org/2000/svg" viewBox="0 0 256.04 256.04"><defs><style>.cls-1{fill:#328a65;}.cls-2{fill:#545554;}</style></defs><title>Logo SVG</title><path class="cls-1" d="M10683.58,1897.22l-56.66,56.66c-39.16-68.62-35.76-168.4-35.76-168.4a436.92,436.92,0,0,1,92.38,8.7A94.49,94.49,0,0,0,10683.58,1897.22Z" transform="translate(-10591.08 -1761.23)"/><path class="cls-1" d="M10812.21,1874.7a57.38,57.38,0,0,1-8.94,11.58c-0.22.22-.43,0.43-0.65,0.63l-0.14.14a57.42,57.42,0,0,1-82.27-80l0.07-.07c0.52-.57,1.1-1.19,1.78-1.88l0.37-.36C10759.88,1817.61,10795.15,1839.06,10812.21,1874.7Z" transform="translate(-10591.08 -1761.23)"/><path class="cls-1" d="M10806.17,2000.49c-74.88,30.08-123.74,16.45-155.59-15.17l60.55-60.55a93.75,93.75,0,0,0,50.71,15.29h0.85a93.74,93.74,0,0,0,60.13-21.64C10823.84,1941.55,10818.95,1968.67,10806.17,2000.49Z" transform="translate(-10591.08 -1761.23)"/><path class="cls-2" d="M10762.68,1930.17h-0.76a84.49,84.49,0,0,1-61.71-141.39c0.8-.89,1.7-1.83,2.71-2.85a84.49,84.49,0,1,1,119.49,119.49h0c-0.39.39-.78,0.77-1.18,1.15A84,84,0,0,1,10762.68,1930.17Zm0-151.78a67.11,67.11,0,0,0-47.6,19.69c-0.8.81-1.5,1.54-2.14,2.24a67.2,67.2,0,0,0,2.14,93c25.76,25.77,68.06,26.17,94.29.9l0.07-.06,0.86-.84A67.29,67.29,0,0,0,10762.67,1778.39Z" transform="translate(-10591.08 -1761.23)"/><path class="cls-2" d="M10620.15,1999.42a11.23,11.23,0,0,1-7.94-19.16l86.86-86.86a11.23,11.23,0,0,1,15.88,15.87l-86.86,86.86A11.19,11.19,0,0,1,10620.15,1999.42Z" transform="translate(-10591.08 -1761.23)"/></svg>